HIERARCHY
ROOT root
{
	OFFSET 0.000000 0.000000 0.000000
	CHANNELS 6 Xposition Yposition Zposition Zrotation Yrotation Xrotation
	JOINT lhip
	{
		OFFSET 0.058581 -0.082280 -0.017664
		CHANNELS 3 Zrotation Yrotation Xrotation
		JOINT lknee
		{
			OFFSET 0.043451 -0.386469 0.008037
			CHANNELS 3 Zrotation Yrotation Xrotation
			JOINT lankle
			{
				OFFSET -0.014790 -0.426874 -0.037428
				CHANNELS 3 Zrotation Yrotation Xrotation
				JOINT ltoe
				{
					OFFSET 0.041054 -0.060286 0.122042
					CHANNELS 3 Zrotation Yrotation Xrotation
					End Site
					{
						OFFSET 0.000000 0.000000 0.000000
					}
				}
			}
		}
	}
	JOINT rhip
	{
		OFFSET -0.060310 -0.090513 -0.013543
		CHANNELS 3 Zrotation Yrotation Xrotation
		JOINT rknee
		{
			OFFSET -0.043257 -0.383688 -0.004843
			CHANNELS 3 Zrotation Yrotation Xrotation
			JOINT rankle
			{
				OFFSET 0.019056 -0.420046 -0.034562
				CHANNELS 3 Zrotation Yrotation Xrotation
				JOINT rtoe
				{
					OFFSET -0.034840 -0.062106 0.130323
					CHANNELS 3 Zrotation Yrotation Xrotation
					End Site
					{
						OFFSET 0.000000 0.000000 0.000000
					}
				}
			}
		}
	}
	JOINT lowerback
	{
		OFFSET 0.004439 0.124404 -0.038385
		CHANNELS 3 Zrotation Yrotation Xrotation
		JOINT upperback
		{
			OFFSET 0.004488 0.137956 0.026820
			CHANNELS 3 Zrotation Yrotation Xrotation
			JOINT chest
			{
				OFFSET -0.002265 0.056032 0.002855
				CHANNELS 3 Zrotation Yrotation Xrotation
				JOINT lowerneck
				{
					OFFSET -0.013390 0.211636 -0.033468
					CHANNELS 3 Zrotation Yrotation Xrotation
					JOINT upperneck
					{
						OFFSET 0.010113 0.088937 0.050410
						CHANNELS 3 Zrotation Yrotation Xrotation
						End Site
						{
							OFFSET 0.000000 0.000000 0.000000
						}
					}
				}
				JOINT lclavicle
				{
					OFFSET 0.071702 0.114000 -0.018898
					CHANNELS 3 Zrotation Yrotation Xrotation
					JOINT lshoulder
					{
						OFFSET 0.122921 0.045205 -0.019046
						CHANNELS 3 Zrotation Yrotation Xrotation
						JOINT lelbow
						{
							OFFSET 0.255332 -0.015649 -0.022946
							CHANNELS 3 Zrotation Yrotation Xrotation
							JOINT lwrist
							{
								OFFSET 0.265709 0.012698 -0.007375
								CHANNELS 3 Zrotation Yrotation Xrotation
								End Site
								{
									OFFSET 0.000000 0.000000 0.000000
								}
							}
						}
					}
				}
				JOINT rclavicle
				{
					OFFSET -0.082954 0.112472 -0.023707
					CHANNELS 3 Zrotation Yrotation Xrotation
					JOINT rshoulder
					{
						OFFSET -0.113228 0.046853 -0.008472
						CHANNELS 3 Zrotation Yrotation Xrotation
						JOINT relbow
						{
							OFFSET -0.260127 -0.014369 -0.031269
							CHANNELS 3 Zrotation Yrotation Xrotation
							JOINT rwrist
							{
								OFFSET -0.269108 0.006794 -0.006027
								CHANNELS 3 Zrotation Yrotation Xrotation
								End Site
								{
									OFFSET 0.000000 0.000000 0.000000
								}
							}
						}
					}
				}
			}
		}
	}
}
MOTION
Frames: 10
Frame Time: 0.033333
0.352345 0.154666 0.993775 86.226756 -0.082057 89.900023 4.755731 5.210267 6.366070 -3.570769 -0.958444 -7.026271 1.348287 9.292364 -3.051045 0.000000 -0.000000 0.000000 -5.989783 -4.127051 1.716868 2.242931 -0.881812 -0.152224 5.021904 -5.224308 -5.850225 0.000000 -0.000000 0.000000 -4.726997 4.219832 -8.284442 2.639783 -1.547009 12.552554 -0.283992 0.421326 -4.179473 2.846150 4.747886 5.455312 3.818413 -1.437143 -3.605546 -25.915565 -0.063954 -2.132554 -56.475116 -6.089688 18.393943 0.821251 -19.232329 10.172233 -10.913726 -11.439614 12.627692 29.382360 0.462957 3.189394 56.001221 1.924503 12.625546 -10.588867 25.743506 -5.378039 4.950394 9.760464 1.620655 
0.352342 0.154604 0.993749 86.212459 -0.084418 89.885543 4.758271 5.207845 6.390061 -3.576191 -0.953429 -7.039244 1.341735 9.297061 -3.049719 0.000000 -0.000000 0.000000 -5.991251 -4.096619 1.745731 2.245048 -0.868836 -0.175121 5.020140 -5.246907 -5.841565 0.000000 -0.000000 0.000000 -4.715975 4.193172 -8.240814 2.615903 -1.508662 12.440370 -0.259021 0.429127 -4.098475 2.857628 4.735291 5.358747 3.802353 -1.444315 -3.468545 -25.834940 -0.080977 -2.110355 -56.553012 -6.095592 18.335634 0.824208 -19.257630 10.266726 -10.939491 -11.424670 12.585506 29.311116 0.450759 3.242168 56.106944 1.973914 12.645413 -10.651112 25.746498 -5.362596 4.957647 9.737661 1.593393 
0.352302 0.154569 0.993737 86.201144 -0.080964 89.871052 4.764487 5.205309 6.414327 -3.578935 -0.940996 -7.054277 1.331310 9.299812 -3.038059 0.000000 -0.000000 0.000000 -5.986324 -4.064447 1.770868 2.248972 -0.854557 -0.196351 5.006261 -5.276609 -5.846309 0.000000 -0.000000 0.000000 -4.703042 4.162874 -8.181127 2.594820 -1.466051 12.311050 -0.226266 0.439165 -4.002815 2.865281 4.721840 5.281049 3.796800 -1.446682 -3.369313 -25.750453 -0.113436 -2.082198 -56.626643 -6.088153 18.287696 0.811578 -19.340194 10.364340 -10.932432 -11.375127 12.511038 29.222565 0.445307 3.298227 56.227681 2.013134 12.668380 -10.719479 25.741065 -5.364965 4.980997 9.684316 1.523683 
0.352230 0.154581 0.993739 86.185757 -0.080407 89.860069 4.772653 5.206563 6.440381 -3.594931 -0.946457 -7.081104 1.309987 9.294881 -3.033101 0.000000 -0.000000 0.000000 -5.989450 -4.030856 1.787004 2.256827 -0.843061 -0.210130 5.008458 -5.299495 -5.839554 0.000000 -0.000000 0.000000 -4.679644 4.132505 -8.099650 2.568467 -1.422360 12.172855 -0.199275 0.439531 -3.916329 2.873902 4.709087 5.223011 3.800709 -1.431775 -3.309117 -25.691662 -0.149143 -2.053823 -56.678250 -6.089370 18.245915 0.786954 -19.404423 10.450568 -10.893274 -11.323066 12.415224 29.121185 0.433683 3.341748 56.349058 2.027932 12.703932 -10.788624 25.701269 -5.343649 5.003303 9.536330 1.410211 
0.352183 0.154591 0.993750 86.171455 -0.080979 89.863583 4.761222 5.208153 6.434495 -3.581159 -0.945883 -7.077965 1.306459 9.298758 -3.031207 0.000000 -0.000000 0.000000 -5.989675 -4.018444 1.783076 2.251301 -0.833744 -0.218668 5.012670 -5.301569 -5.815080 0.000000 -0.000000 0.000000 -4.666581 4.122650 -8.069021 2.556306 -1.404283 12.122365 -0.187649 0.442707 -3.895421 2.870261 4.709578 5.199720 3.797769 -1.421252 -3.309661 -25.652383 -0.174431 -2.045298 -56.716181 -6.092051 18.231283 0.782931 -19.399462 10.478604 -10.887477 -11.307428 12.410908 29.072934 0.436862 3.355493 56.406548 2.033084 12.719623 -10.837773 25.675807 -5.325021 4.995809 9.462745 1.420030 
0.352172 0.154565 0.993800 86.152012 -0.097467 89.887705 4.738994 5.221554 6.430446 -3.591556 -0.967904 -7.106615 1.303512 9.307488 -3.025947 0.000000 -0.000000 0.000000 -6.008804 -3.996941 1.778882 2.251405 -0.829749 -0.260420 5.039256 -5.315998 -5.807467 0.000000 -0.000000 0.000000 -4.668885 4.087457 -8.033821 2.532356 -1.359899 11.993693 -0.158163 0.450223 -3.855448 2.849033 4.699245 5.178741 3.801525 -1.430878 -3.223439 -25.541322 -0.171594 -2.001286 -56.844379 -6.092189 18.210141 0.773367 -19.415199 10.571065 -10.870990 -11.332375 12.366483 28.992789 0.430075 3.426302 56.523845 2.048716 12.726280 -10.922129 25.596884 -5.299608 4.906301 9.491102 1.418304 
0.352081 0.154603 0.993875 86.161742 -0.102032 89.894314 4.720452 5.213508 6.432075 -3.577230 -0.962424 -7.133334 1.290282 9.309131 -3.015083 0.000000 -0.000000 0.000000 -6.023988 -4.004037 1.772163 2.269578 -0.825751 -0.264071 5.031797 -5.334442 -5.807303 0.000000 -0.000000 0.000000 -4.658216 4.074300 -8.011346 2.512551 -1.349757 11.960635 -0.148620 0.433380 -3.814702 2.833440 4.687507 5.073882 3.791266 -1.428265 -3.114980 -25.479073 -0.130188 -1.978499 -56.947542 -6.149125 18.219522 0.821441 -19.415535 10.661045 -10.899704 -11.397999 12.334483 28.996153 0.408103 3.433887 56.537519 2.152836 12.680839 -10.915843 25.345648 -5.294773 4.967908 9.622281 1.348002 
0.352079 0.154588 0.993867 86.141390 -0.116635 89.906239 4.704864 5.212709 6.431845 -3.582567 -0.958216 -7.142225 1.320075 9.305799 -3.014337 0.000000 -0.000000 0.000000 -6.029788 -3.962350 1.746464 2.247515 -0.816908 -0.234710 5.035405 -5.325550 -5.820273 0.000000 -0.000000 0.000000 -4.649971 4.076955 -8.009188 2.492262 -1.332682 11.942027 -0.173859 0.420853 -3.815931 2.879599 4.710941 5.060813 3.787284 -1.462021 -3.025510 -25.420701 -0.116717 -1.958972 -56.991371 -6.134676 18.215095 0.863859 -19.480961 10.735632 -10.945199 -11.320423 12.337938 28.921827 0.366875 3.446759 56.695296 2.071367 12.761154 -11.003626 25.793766 -5.182401 4.929358 9.590187 1.306828 
0.352108 0.154514 0.993862 86.120985 -0.122191 89.897938 4.706697 5.209068 6.436851 -3.595518 -0.935903 -7.131450 1.325696 9.298733 -3.023996 0.000000 -0.000000 0.000000 -6.033486 -3.957333 1.760881 2.250552 -0.810976 -0.252690 5.044578 -5.315511 -5.809914 0.000000 -0.000000 0.000000 -4.646378 4.084013 -8.033517 2.485899 -1.335266 11.987093 -0.187766 0.416928 -3.815178 2.898342 4.716431 5.004241 3.767185 -1.496382 -2.903968 -25.452915 -0.145918 -1.937752 -56.971940 -6.167856 18.188041 0.898473 -19.423553 10.730655 -10.923673 -11.335946 12.341640 28.915838 0.376423 3.454787 56.724530 2.076968 12.779419 -11.037134 25.889443 -5.200025 4.858299 9.575453 1.266411 
0.352143 0.154523 0.993901 86.107838 -0.124252 89.898890 4.685408 5.196403 6.439229 -3.560937 -0.915581 -7.126838 1.323716 9.329551 -3.028638 0.000000 -0.000000 0.000000 -6.033741 -3.928437 1.771241 2.244584 -0.837428 -0.263439 5.035958 -5.310510 -5.796522 0.000000 -0.000000 0.000000 -4.610508 4.108782 -8.039570 2.443270 -1.311733 12.085120 -0.210479 0.462373 -3.929111 2.955107 4.718562 5.096227 3.792058 -1.545567 -2.962850 -25.411799 -0.282551 -1.891480 -56.984528 -6.092416 18.243321 0.925778 -19.420320 10.528017 -10.947047 -11.374519 12.440756 28.774921 0.764538 3.685527 56.973997 1.855632 12.886371 -11.273658 25.821987 -5.748921 4.575851 9.722800 1.082686 
